<svg xmlns="http://www.w3.org/2000/svg" width="766" height="743" viewBox="0 0 766 743" version="1.1">
	<path d="M 85.928 213.919 L 82.717 217.129 83.414 268.314 C 84.109 319.369, 84.116 319.505, 86.305 321.368 C 88.311 323.075, 89.665 323.175, 102 322.528 C 109.425 322.138, 115.703 321.620, 115.951 321.375 C 116.871 320.470, 117.834 309.163, 117.916 298.309 C 117.962 292.154, 118.414 286.862, 118.921 286.549 C 119.427 286.236, 124.440 292.847, 130.060 301.240 C 135.679 309.633, 141.665 317.975, 143.361 319.777 L 146.446 323.055 157.973 322.426 C 171.446 321.691, 173 320.752, 173 313.341 L 173 308.904 177.250 311.817 C 187.707 318.986, 197.161 322.019, 208.934 321.983 C 214.736 321.965, 226.735 319.265, 231.018 317.014 C 240.800 311.872, 249.395 302.107, 253.112 291.912 C 254.312 288.622, 255.769 286.090, 256.351 286.284 C 256.933 286.478, 259.718 293.434, 262.540 301.742 C 269.393 321.919, 269.453 322.002, 277.273 321.991 C 280.698 321.987, 285.851 321.700, 288.725 321.355 L 293.950 320.727 299.137 307.614 C 301.989 300.401, 306.220 288.743, 308.538 281.707 C 310.856 274.671, 313.012 268.655, 313.329 268.338 C 313.645 268.021, 314.665 268.522, 315.595 269.452 C 317.181 271.038, 317.152 271.306, 315.115 273.821 C 311.308 278.521, 309.691 283.232, 309.733 289.500 C 309.778 296.101, 312.568 305.180, 316.058 310.082 C 318.640 313.708, 326.790 319.149, 332.368 320.970 C 338.766 323.059, 351.991 321.839, 362.807 318.163 C 367.926 316.423, 372.282 315, 372.487 315 C 372.693 315, 373.005 316.006, 373.180 317.237 C 373.591 320.107, 377.599 320.865, 392.775 320.942 C 403.980 321, 404.056 320.984, 405.025 318.435 C 405.561 317.024, 406 309.374, 406 301.435 C 406 284.680, 406.917 283.340, 412.100 292.523 C 417.690 302.428, 421.604 302.364, 428.132 292.261 L 432.500 285.500 432.775 301.743 C 433.038 317.299, 433.144 318.046, 435.275 319.394 C 437.098 320.547, 444.361 320.774, 475.500 320.650 C 510.169 320.513, 513.873 320.337, 517.758 318.638 C 521.788 316.876, 531 307.934, 531 305.784 C 531 305.234, 533.044 307.057, 535.542 309.836 C 542.291 317.342, 548.163 319.339, 563.500 319.346 C 575.565 319.352, 575.916 319.280, 587.250 314.521 C 588.451 314.017, 589 314.242, 589 315.238 C 589 316.037, 589.845 317.454, 590.877 318.388 C 592.583 319.933, 594.235 319.993, 609.063 319.057 C 618.034 318.490, 625.799 317.601, 626.320 317.080 C 626.853 316.547, 627.184 309.118, 627.077 300.067 C 626.810 277.371, 628.139 278.132, 640.056 307.500 C 641.842 311.900, 643.740 316.063, 644.274 316.750 C 644.986 317.667, 649.981 318, 663 318 C 683.238 318, 683.478 317.912, 682.379 310.862 C 681.459 304.954, 670.929 281.621, 664.958 272.257 C 663.693 270.274, 663.735 269.696, 665.319 267.257 C 672.027 256.927, 673.584 238.188, 668.401 230.174 C 663.661 222.846, 659.433 218.846, 653.160 215.756 L 646.551 212.500 619.033 212.190 C 592.699 211.893, 591.448 211.964, 589.927 213.841 C 588.350 215.789, 588.293 215.788, 582.419 213.695 C 574.372 210.827, 555.045 210.612, 547.329 213.304 C 540.835 215.570, 533.823 221.669, 530.995 227.511 C 529.799 229.980, 528.679 232, 528.506 232 C 528.332 232, 526.993 229.957, 525.530 227.460 C 521.411 220.432, 516.922 215.854, 512 213.663 C 506.357 211.150, 490.822 210.565, 460.062 211.705 L 438.624 212.500 430.303 226.500 C 425.726 234.200, 421.541 240.500, 421.003 240.500 C 420.465 240.500, 416.082 233.975, 411.263 226 L 402.500 211.500 388.500 211.500 L 374.500 211.500 373.552 215.781 C 372.814 219.108, 372.258 219.907, 371.052 219.368 C 358.670 213.836, 342.084 211.538, 334.271 214.272 C 330.716 215.516, 329.760 215.537, 328.271 214.408 C 326.968 213.418, 322.364 213.055, 310.833 213.032 L 295.165 213 293.567 217.250 C 292.688 219.588, 289.815 227.976, 287.183 235.891 L 282.397 250.283 277.488 233.891 C 273.771 221.483, 271.920 216.832, 269.866 214.750 L 267.154 212 252.327 212.015 C 244.172 212.024, 236.979 212.362, 236.342 212.768 C 235.705 213.173, 234.875 215.149, 234.498 217.159 L 233.813 220.812 226.217 217.205 C 219.766 214.142, 217.330 213.536, 210.060 213.189 C 202.763 212.841, 200.320 213.174, 193.500 215.447 C 189.100 216.914, 182.880 219.663, 179.678 221.557 C 176.476 223.450, 173.439 225, 172.928 225 C 172.418 225, 172 222.760, 172 220.023 C 172 212.349, 170.214 211.582, 153.872 212.245 C 146.696 212.536, 140.410 213.190, 139.901 213.699 C 139.392 214.208, 138.644 222.126, 138.238 231.296 L 137.500 247.969 126.311 233.234 C 108.685 210.023, 111.235 212.091, 99.319 211.345 L 89.138 210.708 85.928 213.919 M 482.280 232.997 C 479.354 234.205, 478.856 236.634, 479.207 248 L 479.500 257.500 485.637 257.334 C 493.171 257.131, 497.224 255.156, 499.365 250.643 C 501.277 246.614, 501.331 245.732, 499.965 240.813 C 498.331 234.929, 488.319 230.504, 482.280 232.997 M 620.750 236.556 C 620.337 236.984, 620 242.208, 620 248.167 L 620 259 624.750 258.994 C 635.889 258.981, 640 255.642, 640 246.605 C 640 239.526, 637.227 237.052, 628.500 236.346 C 624.650 236.034, 621.163 236.129, 620.750 236.556 M 564.682 242.460 C 562.257 244.886, 562.533 249.560, 565.214 251.437 C 566.431 252.290, 569.616 253.278, 572.291 253.633 C 578.264 254.425, 579 255.890, 579 266.994 C 579 276.389, 578.230 277.457, 570.827 278.334 C 562.884 279.274, 560.235 284.680, 565.635 288.927 C 569.021 291.591, 574.158 291.586, 579.680 288.913 C 587.454 285.149, 588 283.745, 588 267.514 C 588 259.696, 587.511 251.895, 586.913 250.180 C 584.876 244.337, 568.495 238.648, 564.682 242.460 M 346.104 246.535 C 342.425 250.725, 342.261 252.233, 345.189 254.961 C 346.859 256.518, 348.723 257, 353.066 257 C 360.731 257, 361.283 257.843, 361.096 269.252 C 360.921 279.834, 360.442 280.570, 353.115 281.509 C 346.872 282.309, 345.553 283.179, 345.196 286.725 C 344.319 295.448, 358.105 295.160, 367.234 286.263 C 372.016 281.605, 373.370 277.429, 373.330 267.468 C 373.279 254.382, 370.533 249.396, 361 245.081 C 353.969 241.898, 349.819 242.303, 346.104 246.535 M 199.898 254.270 C 195.436 257.251, 192.998 262.297, 193.024 268.500 C 193.064 278.540, 198.341 285, 206.500 285 C 211.882 285, 215.886 282.465, 218.057 277.684 C 220.430 272.455, 220.556 263.975, 218.330 259.283 C 215.002 252.271, 206.395 249.930, 199.898 254.270 M 525.290 256.761 C 523.397 260.763, 523.278 261.651, 524.462 262.966 C 525.221 263.810, 526.923 266.406, 528.244 268.736 L 530.644 272.972 532.949 269.855 L 535.254 266.737 532.127 260.454 C 530.407 256.999, 529 253.683, 529 253.086 C 529 250.727, 527.392 252.320, 525.290 256.761 M 480.669 273.233 C 479.083 274.410, 478.816 276.256, 478.669 287.046 L 478.500 299.500 483.500 299.820 C 494.747 300.541, 500.986 297.634, 503.427 290.535 C 506.072 282.842, 502.053 274.627, 495.141 273.596 C 484.149 271.958, 482.445 271.915, 480.669 273.233 M 437.678 353.968 C 430.889 356.137, 426.181 359.202, 420.068 365.431 C 417.648 367.896, 415.293 369.681, 414.834 369.398 C 414.375 369.114, 414 366.241, 414 363.014 C 414 357.812, 413.690 356.901, 411.268 354.996 C 408.748 353.014, 407.578 352.872, 396.229 353.173 C 386.637 353.428, 383.715 353.831, 382.977 355 C 382.430 355.868, 382.024 371.162, 382.015 391.281 C 382.002 421.858, 381.811 426.135, 380.440 426.661 C 379.499 427.022, 377.738 426.165, 376 424.500 C 374.248 422.821, 372.503 421.977, 371.547 422.343 C 370.255 422.839, 370.111 422.463, 370.738 420.223 C 371.157 418.726, 371.444 412.550, 371.377 406.500 C 371.237 394.071, 369.548 387.957, 363.509 378.015 C 355.257 364.430, 347.233 358.640, 332.266 355.468 C 322.138 353.322, 314.290 353.625, 305.141 356.515 C 296.664 359.193, 286.900 365.511, 282.922 370.892 L 280.706 373.889 276.438 369.142 C 273.403 365.767, 269.761 363.260, 263.835 360.466 L 255.500 356.537 228.500 356.853 C 211.795 357.049, 201.024 357.565, 200.250 358.207 C 199.563 358.778, 199 360.779, 199 362.655 L 199 366.065 193.705 362.067 C 184.250 354.929, 183.588 354.800, 153.500 354.243 C 126.526 353.743, 126.498 353.745, 124.500 355.976 C 122.595 358.103, 122.491 359.761, 122.314 390.854 C 122.212 408.810, 121.987 431.746, 121.814 441.824 C 121.428 464.338, 120.483 463.018, 136.941 462.956 C 149.693 462.908, 156.830 461.893, 158.028 459.955 C 158.459 459.257, 159.103 452.569, 159.458 445.093 C 160.316 427.036, 160.334 427, 168.295 427 C 179.979 427, 190.799 423.970, 196.387 419.133 C 198.231 417.538, 198.258 417.928, 197.567 436.114 C 196.986 451.395, 197.122 455.356, 198.325 458.237 L 199.792 461.745 208.646 462.142 C 219.436 462.625, 234.536 461.803, 235.669 460.671 C 236.126 460.214, 236.725 452.938, 237 444.501 C 237.712 422.665, 238.377 422.665, 245.549 444.500 C 248.078 452.200, 250.859 459.288, 251.728 460.250 C 253.128 461.798, 255.472 462, 272.061 462 L 290.812 462 291.506 456.960 L 292.199 451.920 295.637 453.948 C 300.015 456.531, 309.424 459.626, 317.168 461.030 C 328.791 463.138, 341.745 459.601, 352.096 451.493 L 357.691 447.110 362.096 451.601 C 372.699 462.414, 389.169 465.078, 400.057 457.741 C 405.071 454.362, 409.720 447.665, 411.888 440.699 C 413.350 435.999, 413.972 434.983, 414.461 436.500 C 417.415 445.672, 424.415 454.086, 432.246 457.877 C 441.792 462.498, 458.188 461.485, 469.898 455.552 C 476.974 451.966, 478 450.620, 478 444.929 C 478 442.218, 478.390 440, 478.867 440 C 479.344 440, 480.886 441.741, 482.294 443.869 C 485.654 448.946, 495.535 455.458, 503.850 458.074 C 519.842 463.107, 549.394 459.197, 551.351 451.790 C 551.683 450.531, 552.510 443.933, 553.188 437.129 L 554.421 424.759 551.692 422.411 C 548.602 419.753, 548.164 419.839, 537.144 425.255 C 529.783 428.873, 522.733 429.331, 518.251 426.483 C 509.861 421.152, 506.620 415.314, 507.178 406.540 C 507.661 398.953, 510.192 395.078, 517.340 390.978 C 526.345 385.814, 534.713 387.210, 548.213 396.128 C 550.805 397.841, 553.594 398.986, 554.411 398.673 C 555.227 398.359, 556.386 396.280, 556.986 394.051 L 558.077 390 566.503 390 C 576.751 390, 576.995 390.298, 575.914 401.500 C 575.490 405.900, 575.110 420.109, 575.071 433.076 L 575 456.651 577.577 459.076 C 579.997 461.351, 580.962 461.518, 593.327 461.788 C 608.857 462.128, 612.122 460.940, 613.918 454.298 C 614.483 452.209, 615.234 437.993, 615.587 422.706 C 616.323 390.871, 616.070 391.750, 624.367 392.165 C 635.171 392.705, 638.965 392.126, 641.545 389.545 C 643.925 387.166, 644 386.651, 644 372.617 C 644 361.124, 643.693 357.836, 642.509 356.652 C 640.325 354.468, 632.549 354.017, 592.366 353.745 C 558.051 353.512, 556.126 353.596, 554.116 355.405 C 552.952 356.453, 552 358.193, 552 359.272 C 552 361.507, 551.948 361.498, 541.500 357.357 C 535.186 354.854, 533.275 354.580, 522 354.553 C 510.011 354.525, 509.182 354.661, 501.716 357.869 C 493.617 361.350, 486.925 366.214, 483.500 371.108 C 480.768 375.012, 480.017 374.729, 479.900 369.750 C 479.733 362.602, 478.804 360.911, 473.355 357.832 C 463.469 352.247, 448.229 350.596, 437.678 353.968 M 153.512 380.981 C 153.179 381.520, 153.219 386.510, 153.602 392.069 C 154.093 399.200, 154.702 402.332, 155.668 402.703 C 158.252 403.694, 169.947 401.863, 172.085 400.132 C 174.776 397.954, 175.860 389.975, 173.950 386.406 C 171.700 382.202, 166.971 380, 160.191 380 C 156.851 380, 153.845 380.441, 153.512 380.981 M 231.670 381.750 C 230.978 384.360, 230.899 396.109, 231.554 399.173 C 232.014 401.326, 232.849 401.968, 235.852 402.475 C 240.260 403.220, 247.687 401.741, 249.713 399.716 C 251.898 397.530, 252.941 391.394, 251.839 387.201 C 250.308 381.372, 247.949 380, 239.457 380 C 233.327 380, 232.059 380.285, 231.670 381.750 M 451.315 383.007 C 443.681 386.083, 448.392 395, 457.651 395 C 464.166 395, 465 396.469, 465 407.949 C 465 418.467, 464.194 420.386, 460.214 419.346 C 457.088 418.528, 453.374 419.683, 451.028 422.201 C 448.270 425.161, 448.481 427.445, 451.750 430.023 C 455.063 432.634, 459.651 432.316, 466.500 429 C 472.088 426.295, 473.250 424.356, 471.963 419.878 C 470.562 414.999, 470.625 401.311, 472.076 395.584 C 473.306 390.727, 473.286 390.640, 470.411 388.326 C 467.252 385.786, 457.972 381.961, 455.212 382.063 C 454.271 382.098, 452.517 382.523, 451.315 383.007 M 314.756 392.569 C 308.104 396.178, 305.693 409.138, 310.179 417.168 C 313.146 422.478, 316.599 425.002, 321.863 425.708 C 325.776 426.233, 326.312 425.998, 329.980 422.142 C 332.371 419.629, 334.171 416.606, 334.582 414.415 C 336.177 405.911, 332.552 394.484, 327.533 392.197 C 323.988 390.582, 318.103 390.753, 314.756 392.569 M 114.333 520.097 C 110.290 521.268, 106 526.336, 106 529.942 C 106 535.525, 109.570 538.224, 121.226 541.455 C 124.821 542.451, 127.354 543.793, 128.031 545.059 C 131.556 551.644, 120.937 555.424, 111.257 551.030 C 107.053 549.122, 107.005 549.122, 105.958 551.079 C 105.027 552.817, 105.415 553.287, 109.201 555.005 C 115.427 557.831, 124.668 557.698, 129.089 554.719 C 135.364 550.490, 135.491 543.595, 129.369 539.470 C 127.661 538.319, 123.688 536.801, 120.540 536.096 C 111.749 534.129, 108.841 530.159, 113.085 525.915 C 115.166 523.834, 117.863 523.708, 129 525.171 C 130.931 525.425, 131.500 525.052, 131.500 523.532 C 131.500 520.078, 121.387 518.055, 114.333 520.097 M 475.655 520.459 C 465.534 524.067, 460.379 535.792, 464.538 545.746 C 465.384 547.770, 466.847 550.279, 467.788 551.320 C 474.045 558.239, 487.998 558.943, 495.775 552.732 C 496.793 551.919, 496.716 551.344, 495.396 549.885 C 493.795 548.116, 493.666 548.118, 491.342 549.946 C 487.700 552.810, 482.058 553.407, 477.156 551.446 C 472.039 549.398, 469.161 545.565, 468.438 539.835 C 467 528.434, 479.374 520.344, 489.878 525.819 C 493.447 527.680, 493.978 527.731, 495.141 526.330 C 496.229 525.019, 496.070 524.475, 494.138 522.910 C 489.477 519.137, 482.105 518.159, 475.655 520.459 M 543.331 520.878 C 538.635 523.077, 537 525.432, 537 530 C 537 536.012, 539.632 537.993, 552.237 541.467 C 556.871 542.744, 558.093 543.524, 558.595 545.522 C 559.448 548.923, 558.517 550.853, 555.461 552.015 C 551.496 553.522, 546.950 553.160, 542.077 550.949 C 538.593 549.369, 537.481 549.214, 536.843 550.221 C 535.589 552.200, 536.326 553.351, 540.060 555.248 C 547.999 559.283, 562.074 556.540, 563.547 550.669 C 565.494 542.911, 562.419 538.950, 552.457 536.383 C 544.786 534.406, 542 532.581, 542 529.534 C 542 524.664, 550.157 522.416, 557.958 525.135 C 560.572 526.046, 561.388 525.997, 562.092 524.885 C 563.403 522.816, 563.233 522.427, 560.462 521.165 C 555.495 518.901, 547.828 518.773, 543.331 520.878 M 591.558 520.442 C 582.934 523.623, 578.518 529.798, 578.644 538.500 C 578.726 544.204, 580.509 548.258, 584.661 552.186 C 588.372 555.697, 592.007 557, 598.097 557 C 606.336 557, 613.845 552.776, 610.517 550.014 C 609.301 549.005, 608.571 549.051, 606.740 550.251 C 600.836 554.119, 592.426 553.142, 587.516 548.017 C 583.685 544.018, 582.836 535.176, 585.827 530.420 C 589.668 524.312, 598.341 522.350, 605.460 525.980 C 608.357 527.456, 609.681 527.680, 610.672 526.857 C 612.665 525.203, 612.320 524.361, 608.739 522.148 C 604.273 519.388, 596.507 518.617, 591.558 520.442 M 639.994 519.934 C 631.820 522.421, 626.639 528.011, 625.432 535.647 C 624.600 540.914, 626.297 546.130, 630.340 550.735 C 634.343 555.294, 638.507 557, 645.630 557 C 668.063 557, 672.152 526.018, 650.500 520.104 C 645.985 518.870, 643.617 518.832, 639.994 519.934 M 159.550 525.250 C 158.264 528.138, 154.492 536.462, 151.169 543.750 L 145.127 557 147.981 557 C 150.442 557, 151.071 556.381, 152.553 552.500 L 154.272 548 164.437 548 L 174.601 548 176.788 552.500 C 178.545 556.116, 179.484 557, 181.570 557 C 182.998 557, 184.017 556.619, 183.833 556.153 C 183.650 555.687, 179.900 547.365, 175.500 537.659 C 167.902 520.899, 167.359 520.011, 164.695 520.006 C 162.273 520.001, 161.570 520.717, 159.550 525.250 M 199 538.500 L 199 557 201.472 557 L 203.944 557 204.222 543.250 L 204.500 529.500 215.500 543.212 C 223.662 553.387, 227.081 556.934, 228.750 556.962 L 231 557 231 538.500 L 231 520 228.528 520 L 226.056 520 225.778 533.713 L 225.500 547.425 214.575 533.713 C 206.168 523.160, 203.115 520, 201.325 520 L 199 520 199 538.500 M 275 538.500 L 275 557 277.500 557 C 279.944 557, 280 556.833, 280 549.500 L 280 542 289.570 542 C 298.922 542, 299.132 541.949, 298.820 539.750 C 298.518 537.626, 297.980 537.484, 289.250 537.212 L 280 536.925 280 530.462 L 280 524 290.500 524 C 300.333 524, 301 523.873, 301 522 C 301 520.103, 300.333 520, 288 520 L 275 520 275 538.500 M 318 538.500 L 318 557 320.500 557 C 322.864 557, 323 556.700, 323 551.500 L 323 546 328.940 546 L 334.880 546 338.690 551.488 C 341.767 555.921, 343.040 556.979, 345.309 556.988 C 348.466 557.001, 348.454 556.957, 343.296 549.805 L 339.910 545.109 343.490 541.805 C 347.826 537.801, 348.891 533.069, 346.658 527.724 C 344.114 521.636, 340.234 520.008, 328.250 520.004 L 318 520 318 538.500 M 368.570 537.718 C 364.209 547.498, 360.470 555.837, 360.261 556.250 C 360.053 556.663, 361.146 556.998, 362.691 556.996 C 365.078 556.993, 365.778 556.317, 367.349 552.496 L 369.198 548 379.463 548 L 389.728 548 391.447 552.500 C 392.929 556.380, 393.558 557, 396.018 557 L 398.871 557 390.636 538.750 C 382.822 521.435, 382.249 520.486, 379.450 520.218 C 376.537 519.939, 376.400 520.158, 368.570 537.718 M 414 538.500 L 414 557 416.472 557 L 418.944 557 419.222 543.362 L 419.500 529.724 430.447 543.362 C 438.796 553.763, 441.940 557, 443.697 557 L 446 557 446 538.500 L 446 520 443.029 520 L 440.058 520 439.779 533.175 L 439.500 546.349 429 533.234 C 421.282 523.594, 417.904 520.103, 416.250 520.059 L 414 520 414 538.500 M 514 538.500 L 514 557 516.500 557 L 519 557 519 538.500 L 519 520 516.500 520 L 514 520 514 538.500 M 323 532.500 L 323 541 329.944 541 C 338.632 541, 342.200 538.608, 342.200 532.782 C 342.200 530.775, 341.875 528.607, 341.478 527.964 C 340.166 525.842, 334.150 524, 328.532 524 L 323 524 323 532.500 M 637.984 525.863 C 636.068 526.888, 633.675 529.131, 632.667 530.848 C 630.309 534.862, 630.299 542.005, 632.645 545.976 C 634.593 549.274, 641.147 553, 645 553 C 648.915 553, 655.419 549.253, 657.439 545.835 C 664.851 533.287, 650.895 518.960, 637.984 525.863 M 161.058 533.250 C 159.276 537.237, 157.586 541.063, 157.302 541.750 C 156.916 542.686, 158.699 543, 164.393 543 C 168.577 543, 172 542.606, 172 542.125 C 172 541.013, 165.179 526, 164.674 526 C 164.467 526, 162.840 529.263, 161.058 533.250 M 376.236 532.216 C 370.945 543.755, 370.721 543, 379.433 543 C 383.595 543, 386.973 542.663, 386.941 542.250 C 386.908 541.837, 385.179 537.900, 383.098 533.500 L 379.315 525.500 376.236 532.216" stroke="none" fill="#000000" fill-rule="evenodd"/>
</svg>