<svg xmlns="http://www.w3.org/2000/svg" width="763" height="743" viewBox="0 0 763 743" version="1.1">
	<path d="M 0 371.501 L 0 743.003 381.750 742.751 L 763.500 742.500 763.751 371.250 L 764.003 0 382.001 0 L 0 0 0 371.501 M 0.495 372 C 0.495 576.325, 0.610 659.913, 0.750 557.750 C 0.890 455.588, 0.890 288.413, 0.750 186.250 C 0.610 84.088, 0.495 167.675, 0.495 372 M 109.229 221.669 C 108.530 221.951, 107.253 223.544, 106.391 225.210 C 105.004 227.892, 104.906 233.533, 105.533 274.370 C 106.137 313.712, 106.467 320.758, 107.776 322.250 C 109.066 323.721, 111.078 323.998, 120.405 323.985 C 136.831 323.963, 136.361 324.414, 137.132 307.974 C 137.969 290.131, 137.880 291, 138.863 291 C 139.338 291, 144.027 297.413, 149.282 305.250 C 162.611 325.129, 161.511 324.319, 174.539 323.837 C 186.639 323.389, 188 322.577, 188 315.809 C 188 313.714, 188.291 312, 188.646 312 C 189.002 312, 191.689 313.590, 194.617 315.534 C 202.170 320.547, 207.219 322.130, 217.500 322.709 C 232.580 323.559, 242.843 319.914, 252.299 310.353 C 256.459 306.147, 261.356 297.891, 263.434 291.583 C 264.471 288.433, 265.805 290.843, 270.359 304.099 C 277.076 323.655, 276.097 322.446, 285.510 322.805 C 299.799 323.351, 298.969 323.963, 304.828 308.570 C 307.631 301.206, 311.583 290.181, 313.610 284.070 C 317.127 273.467, 317.380 273.034, 319.118 274.607 C 320.869 276.192, 320.816 276.430, 317.749 280.700 C 315.081 284.415, 314.497 286.240, 314.189 291.822 C 313.492 304.463, 319.469 314.871, 330.692 320.557 C 338.846 324.689, 348.627 324.526, 361.849 320.038 C 366.991 318.293, 371.266 317.008, 371.349 317.182 C 373.410 321.520, 373.296 321.484, 386.944 322 C 397.527 322.400, 400.410 322.220, 401.338 321.100 C 402.065 320.225, 402.622 314.299, 402.825 305.291 C 403.174 289.777, 403.664 288.742, 407.658 295.077 C 413.928 305.020, 416.734 305.247, 422.500 296.278 C 424.700 292.856, 426.907 290.043, 427.404 290.028 C 427.931 290.012, 428.034 295.742, 427.651 303.773 C 427.097 315.374, 427.239 317.896, 428.553 319.773 L 430.113 322 464.375 322 C 505.349 322, 506.314 321.834, 513.722 313.522 L 518.568 308.085 521.421 311.661 C 523.003 313.643, 526.774 316.408, 529.887 317.868 C 535.016 320.273, 536.579 320.499, 548 320.492 C 558.842 320.485, 561.151 320.185, 565.405 318.230 C 568.102 316.990, 570.404 316.094, 570.519 316.238 C 570.635 316.382, 571.290 317.577, 571.976 318.893 L 573.224 321.286 588.286 320.585 C 596.571 320.199, 604.203 319.427, 605.246 318.869 C 607.028 317.915, 607.099 316.957, 606.431 302.927 C 605.906 291.901, 606.022 288, 606.875 288 C 608.501 288, 611.439 293.145, 615.146 302.486 C 616.896 306.894, 619.386 312.637, 620.680 315.250 L 623.034 320 633.267 319.993 C 647.918 319.983, 656.785 319.004, 657.429 317.326 C 658.612 314.242, 655.406 305.043, 647.977 290.205 C 640.175 274.621, 640.162 274.581, 641.961 272.043 C 645.151 267.543, 647 260.246, 647 252.161 C 647 245.833, 646.526 243.441, 644.443 239.261 C 641.580 233.517, 636.223 228.225, 629.795 224.793 C 625.687 222.600, 624.376 222.486, 599.647 222.188 C 576.668 221.910, 573.591 222.060, 571.958 223.538 C 570.243 225.090, 569.767 225.078, 564.810 223.350 C 556.918 220.600, 537.261 220.790, 531 223.677 C 525.302 226.304, 519.685 231.776, 517.423 236.903 L 515.667 240.883 511.579 234.228 C 506.894 226.602, 503.025 223.600, 495.914 222.075 C 490.604 220.936, 460.560 220.821, 443.051 221.873 L 432.603 222.500 425.029 235.189 C 420.863 242.168, 417.165 248.169, 416.810 248.524 C 416.455 248.878, 413.578 244.743, 410.416 239.334 C 407.254 233.925, 403.361 227.574, 401.765 225.221 L 398.864 220.941 386.182 221.221 L 373.500 221.500 372.565 225.286 C 371.851 228.176, 371.259 228.911, 370.065 228.394 C 359.278 223.721, 343.631 221.647, 336.620 223.960 C 333.502 224.989, 332.544 224.931, 330.497 223.590 C 328.607 222.352, 325.316 222, 315.617 222 C 308.768 222, 302.476 222.264, 301.636 222.586 C 300.718 222.938, 298.041 229.426, 294.930 238.836 C 292.081 247.451, 289.451 254.833, 289.086 255.239 C 288.720 255.646, 286.639 249.823, 284.461 242.299 C 282.282 234.775, 279.583 227.242, 278.462 225.560 L 276.424 222.500 262.962 222.212 C 246.383 221.857, 245 222.138, 245 225.852 C 245 227.400, 244.721 228.946, 244.380 229.287 C 244.038 229.628, 241.126 228.578, 237.908 226.954 C 224.448 220.159, 208.421 221.640, 193.586 231.048 C 190.937 232.728, 188.597 233.930, 188.386 233.719 C 188.175 233.508, 187.599 231.179, 187.107 228.542 C 186.614 225.906, 185.601 223.362, 184.856 222.890 C 182.615 221.470, 158.255 221.788, 157.309 223.250 C 156.864 223.938, 156.275 231.397, 156 239.827 L 155.500 255.153 145.503 241.859 C 140.005 234.547, 133.887 226.863, 131.908 224.782 L 128.310 221 119.405 221.079 C 114.507 221.122, 109.928 221.388, 109.229 221.669 M 471.035 242.934 C 470.466 243.998, 470 248.962, 470 253.966 C 470 264.486, 470.097 264.593, 478.646 263.525 C 487.247 262.450, 491.344 256.969, 489.393 249.146 C 488.160 244.204, 483.241 241, 476.887 241 C 473.148 241, 471.839 241.433, 471.035 242.934 M 599.755 244.617 C 599.464 245.103, 599.465 249.936, 599.755 255.357 L 600.284 265.215 606.777 264.801 C 615.115 264.271, 618 261.508, 618 254.055 C 618 246.799, 616.093 245.051, 607.391 244.326 C 603.482 244, 600.045 244.131, 599.755 244.617 M 548.104 250.805 C 545.509 255.655, 548.559 259.465, 555.679 260.267 C 558.192 260.551, 560.635 261.394, 561.108 262.141 C 561.582 262.888, 561.976 267.180, 561.985 271.679 C 562.003 281.221, 560.911 283, 555.039 283 C 552.782 283, 550.265 283.775, 548.881 284.895 C 546.867 286.526, 546.680 287.189, 547.543 289.645 C 549.704 295.797, 559.628 295.899, 566.527 289.842 L 570 286.793 570 272.331 C 570 264.290, 569.541 257.011, 568.967 255.938 C 567.447 253.097, 560.496 249.907, 554.477 249.285 C 549.869 248.810, 549.070 249, 548.104 250.805 M 350.357 250.954 C 347.827 252.020, 345 255.773, 345 258.068 C 345 261.093, 348.385 263, 353.757 263 C 361.485 263, 362.417 264.415, 361.609 274.926 C 361.249 279.612, 360.589 283.811, 360.143 284.257 C 359.697 284.703, 356.929 285.448, 353.992 285.912 C 348.156 286.835, 345.600 289.097, 346.608 292.448 C 347.610 295.783, 348.858 296.505, 353.445 296.407 C 362.316 296.216, 371.046 288.367, 372.493 279.280 C 373.527 272.790, 372.078 262.411, 369.630 258.780 C 365.988 253.375, 355.102 248.955, 350.357 250.954 M 211.032 262.750 C 206.285 267.518, 205.314 272.128, 207.484 279.592 C 208.711 283.814, 209.817 285.528, 212.289 287.035 C 221.681 292.761, 231.286 285.911, 231.286 273.486 C 231.286 264.418, 226.479 259, 218.432 259 C 215.525 259, 213.991 259.777, 211.032 262.750 M 512.771 263.135 C 511.104 267.102, 511.112 267.349, 512.996 269.994 C 514.071 271.504, 515.413 273.955, 515.978 275.443 L 517.006 278.146 519.427 275.269 L 521.848 272.391 518.674 265.755 C 516.928 262.104, 515.275 259.096, 515 259.069 C 514.725 259.042, 513.722 260.872, 512.771 263.135 M 470.354 279.519 C 469.989 280.470, 469.648 286.030, 469.595 291.874 L 469.500 302.500 473.500 302.826 C 480.311 303.380, 485.910 302.052, 489.217 299.097 C 491.796 296.793, 492.384 295.420, 492.766 290.809 C 493.185 285.757, 492.965 284.992, 490.205 281.903 C 487.319 278.673, 486.826 278.507, 479.101 278.156 C 472.153 277.841, 470.925 278.032, 470.354 279.519 M 387.500 351.430 C 386.950 351.647, 385.262 352.098, 383.750 352.432 L 381 353.038 380.997 369.269 C 380.992 396.411, 379.839 420, 378.517 420 C 377.874 420, 376.279 418.862, 374.972 417.471 C 373.665 416.079, 372.082 415.138, 371.455 415.379 C 370.629 415.696, 370.442 413.146, 370.778 406.154 C 371.345 394.395, 369.977 387.211, 365.465 378.237 C 359.348 366.071, 351.339 358.807, 339.995 355.140 C 333.530 353.050, 321.926 352.083, 316.058 353.145 C 307.458 354.702, 297.080 360.138, 291.675 365.916 L 286.981 370.935 282.740 366.318 C 280.102 363.445, 275.866 360.435, 271.528 358.350 L 264.556 355 239.478 355 C 212.503 355, 212 355.095, 212 360.200 C 212 361.740, 211.738 363, 211.418 363 C 211.098 363, 208.961 361.468, 206.668 359.595 C 199.223 353.513, 195.589 352.914, 168.004 353.225 L 143.508 353.500 142.326 357.107 C 140.467 362.786, 140.209 449.342, 142.045 451.555 C 143.236 452.989, 145.334 453.162, 157.688 452.843 C 168.626 452.560, 172.294 452.127, 173.407 450.987 C 174.416 449.953, 175.162 445.315, 175.854 435.776 C 176.402 428.228, 177.094 421.657, 177.392 421.175 C 177.690 420.693, 182.111 420.038, 187.217 419.720 C 197.123 419.103, 203.237 417.392, 208.226 413.839 L 211.320 411.636 210.722 428.499 C 209.937 450.634, 210.231 451.440, 219.432 452.383 C 227.312 453.190, 243.969 452.153, 245.750 450.744 C 246.629 450.048, 247.021 445.863, 247.070 436.628 C 247.138 423.947, 247.915 418.435, 249.314 420.700 C 250.308 422.307, 255.670 437.872, 256.998 443 C 259.410 452.319, 258.631 452, 279.023 452 L 297 452 297 449.082 C 297 443.478, 297.613 443.116, 302.791 445.662 C 305.381 446.936, 311.100 448.916, 315.500 450.062 C 329.371 453.675, 341.756 451.289, 352.615 442.912 L 358.099 438.681 362.299 442.756 C 368.477 448.751, 374.285 451.394, 382.268 451.845 C 389.306 452.243, 393.207 451.232, 398.369 447.673 C 402.058 445.129, 406.785 437.684, 408.161 432.250 C 409.242 427.982, 411 426.453, 411 429.781 C 411 432.384, 417.390 442.173, 420.675 444.601 C 426.504 448.911, 430.383 450.245, 438.568 450.756 C 445.194 451.169, 448.152 450.845, 454.029 449.060 C 466.087 445.397, 469 442.916, 469 436.309 C 469 433.939, 469.337 432.003, 469.750 432.007 C 470.163 432.011, 471.625 433.667, 473 435.688 C 476.015 440.119, 485.575 446.499, 492.105 448.439 C 502.591 451.553, 516.378 451.399, 528.895 448.028 C 535.381 446.282, 536.546 444.499, 537.850 434.332 C 539.485 421.583, 539.341 417.619, 537.171 415.655 C 534.592 413.321, 533.120 413.541, 524.860 417.500 C 515.371 422.047, 509.962 422.204, 504.291 418.096 C 495.945 412.050, 493.125 402.886, 497.186 395.013 C 500.396 388.791, 506.414 384.796, 513.460 384.212 C 519.870 383.680, 523.126 384.777, 531.195 390.184 C 534.327 392.283, 537.574 394, 538.410 394 C 540.191 394, 542 391.009, 542 388.066 C 542 386.142, 542.578 386, 550.393 386 C 556.276 386, 558.932 386.382, 559.276 387.276 C 559.545 387.978, 559.394 393.715, 558.940 400.026 C 557.955 413.726, 557.744 445.169, 558.621 447.455 C 559.906 450.803, 564.485 452, 576 452 C 588.189 452, 592.393 450.726, 593.980 446.552 C 594.472 445.258, 595.196 432.003, 595.589 417.096 C 596.055 399.440, 596.686 389.685, 597.402 389.110 C 598.006 388.624, 602.946 388.040, 608.380 387.811 C 621.934 387.242, 622 387.152, 622 369.412 C 622 356.638, 621.900 355.981, 619.741 354.566 C 617.899 353.359, 610.653 352.964, 580.491 352.428 C 540.803 351.722, 538.557 351.933, 537.420 356.465 C 537.070 357.859, 536.530 359, 536.220 359 C 535.910 359, 532.884 357.891, 529.495 356.535 C 520.478 352.928, 510.870 351.668, 502.434 352.987 C 492.681 354.512, 481.598 359.960, 475.877 366.043 L 471.254 370.957 470.579 364.993 C 469.934 359.294, 469.715 358.918, 465.677 356.551 C 455.157 350.386, 438.504 349.328, 427.980 354.157 C 424.966 355.541, 419.964 358.994, 416.865 361.831 C 411.534 366.712, 411.198 366.869, 410.629 364.745 C 410.298 363.510, 410.021 360.823, 410.014 358.773 C 409.995 353.639, 407.487 352.253, 397 351.580 C 392.325 351.281, 388.050 351.213, 387.500 351.430 M 243.210 376.849 C 242.271 377.445, 241.999 380.224, 242.210 387.084 L 242.500 396.500 249.250 396.796 C 255.323 397.062, 256.250 396.841, 258.500 394.591 C 260.426 392.665, 261 391.058, 261 387.593 C 261 381.592, 259.360 378.321, 255.713 377.050 C 252.145 375.806, 245.034 375.692, 243.210 376.849 M 170 382.360 C 170 390.062, 171.077 396.821, 172.378 397.282 C 172.995 397.501, 176.370 397.392, 179.878 397.041 C 187.520 396.275, 190 394.008, 190 387.789 C 190 384.586, 189.330 383.130, 186.600 380.400 C 183.420 377.220, 182.773 377, 176.600 377 L 170 377 170 382.360 M 442.571 380.571 C 438.523 384.620, 442.164 389.386, 450.017 390.316 C 452.950 390.663, 455.722 391.522, 456.179 392.224 C 456.635 392.926, 456.894 397.775, 456.754 403 L 456.500 412.500 451.386 413.015 C 445.261 413.632, 443 415.269, 443 419.087 C 443 424.129, 449.920 425.584, 457.500 422.137 C 463.680 419.325, 464.307 418.113, 463.064 411.387 C 461.687 403.940, 461.718 398.373, 463.172 392.074 C 464.270 387.317, 464.199 386.841, 462.046 384.549 C 457.612 379.829, 445.739 377.404, 442.571 380.571 M 317.253 389.441 C 314.236 391.979, 311.984 397.651, 312.022 402.616 C 312.053 406.707, 315.271 413.281, 318.476 415.802 C 324.864 420.827, 331.182 419.380, 335.149 411.983 C 339.072 404.667, 336.255 390.188, 330.480 387.993 C 325.789 386.209, 320.391 386.800, 317.253 389.441 M 108.480 511.870 C 102.218 514.715, 100.131 521.354, 103.966 526.230 C 106.093 528.934, 108.366 529.999, 117.289 532.473 C 121.709 533.699, 123.357 534.689, 124.253 536.657 C 125.308 538.972, 125.132 539.490, 122.519 541.737 C 119.982 543.919, 118.946 544.171, 114.418 543.704 C 111.562 543.409, 107.842 542.452, 106.151 541.578 C 103.246 540.076, 103.018 540.097, 102.019 541.964 C 101.094 543.693, 101.485 544.207, 105.140 546.071 C 108.573 547.823, 110.643 548.136, 116.763 547.827 C 123.683 547.477, 124.412 547.222, 127.104 544.210 C 130.172 540.776, 130.749 537.274, 128.837 533.684 C 127.067 530.361, 125.117 529.273, 117.607 527.418 C 108.085 525.065, 105.164 521.893, 108.419 517.441 C 109.592 515.838, 110.940 515.529, 116.169 515.664 C 119.651 515.755, 123.625 515.980, 125 516.164 C 126.933 516.424, 127.500 516.054, 127.500 514.532 C 127.500 510.484, 115.292 508.776, 108.480 511.870 M 471.655 511.401 C 459.114 516.059, 454.926 532.520, 463.788 542.320 C 469.830 549.001, 484.849 550.066, 491.256 544.268 C 492.880 542.798, 492.891 542.537, 491.399 540.888 C 489.850 539.177, 489.659 539.192, 486.885 541.243 C 482.916 544.177, 475.590 544.145, 470.780 541.173 C 461.202 535.254, 462.971 519.475, 473.606 515.965 C 478.125 514.474, 484.522 515.258, 487.136 517.623 C 488.613 518.960, 489.532 519.154, 490.749 518.387 C 493.547 516.622, 493.173 515.465, 489.057 513.152 C 483.952 510.283, 476.645 509.548, 471.655 511.401 M 540.313 511.044 C 535.884 512.407, 533 516.404, 533 521.183 C 533 526.496, 536.225 529.311, 544.770 531.457 C 552.268 533.339, 555 535.228, 555 538.533 C 555 543.699, 546.329 545.566, 538.473 542.091 C 534.695 540.420, 533.470 540.232, 532.839 541.228 C 531.589 543.199, 532.329 544.352, 536.060 546.248 C 540.473 548.491, 550.953 548.593, 555.128 546.434 C 558.851 544.508, 561.197 539.383, 560.149 535.464 C 559.131 531.660, 555.611 529.227, 548.457 527.383 C 540.786 525.406, 538 523.581, 538 520.534 C 538 515.664, 546.157 513.416, 553.958 516.135 C 556.572 517.046, 557.388 516.997, 558.092 515.885 C 559.414 513.798, 559.236 513.429, 556.250 512.065 C 552.545 510.373, 544.229 509.840, 540.313 511.044 M 587.620 511.233 C 579.479 513.388, 572.834 524.143, 574.549 532.388 C 575.757 538.197, 579.717 543.684, 584.302 545.904 C 590.248 548.783, 598.904 548.744, 604.114 545.816 C 608.401 543.406, 608.695 542.822, 606.525 541.021 C 605.340 540.037, 604.163 540.227, 600.527 541.987 C 590.297 546.939, 580 540.237, 580 528.626 C 580 525.260, 580.648 523.383, 582.619 521.041 C 587.854 514.819, 594.453 513.407, 601.502 517.001 C 605.061 518.816, 605.570 518.856, 606.963 517.436 C 608.348 516.026, 608.269 515.682, 606.170 513.960 C 601.699 510.294, 594.930 509.299, 587.620 511.233 M 634.267 511.114 C 629.337 512.539, 623.409 518.750, 622.009 523.958 C 618.491 537.045, 627.306 548, 641.356 548 C 650.323 548, 656.316 544.275, 659.462 536.746 C 665.921 521.287, 651.132 506.242, 634.267 511.114 M 155.550 516.250 C 154.264 519.138, 150.492 527.462, 147.169 534.750 L 141.127 548 143.965 548 C 146.386 548, 147.073 547.341, 148.651 543.504 L 150.500 539.007 160.651 539.004 L 170.802 539 172.651 543.496 C 174.232 547.342, 174.913 547.993, 177.357 547.996 C 179.236 547.999, 180.048 547.572, 179.728 546.750 C 179.461 546.063, 175.734 537.737, 171.445 528.250 C 163.971 511.718, 163.527 511, 160.769 511 C 158.260 511, 157.589 511.674, 155.550 516.250 M 195 529.500 L 195 548 197.472 548 L 199.944 548 200.222 534.250 L 200.500 520.500 211.500 534.236 C 219.729 544.512, 223.067 547.976, 224.750 547.986 L 227 548 227 529.500 L 227 511 224.528 511 L 222.056 511 221.778 524.567 L 221.500 538.134 210.570 524.567 C 202.205 514.184, 199.095 511, 197.320 511 L 195 511 195 529.500 M 271 529.500 L 271 548 273.500 548 C 275.944 548, 276 547.833, 276 540.500 L 276 533 285.570 533 C 294.922 533, 295.132 532.949, 294.820 530.750 C 294.518 528.626, 293.980 528.484, 285.250 528.212 L 276 527.925 276 521.462 L 276 515 286.500 515 C 296.333 515, 297 514.873, 297 513 C 297 511.103, 296.333 511, 284 511 L 271 511 271 529.500 M 314 529.500 L 314 548 316.500 548 C 318.864 548, 319 547.700, 319 542.500 L 319 537 324.940 537 L 330.880 537 334.690 542.488 C 337.767 546.921, 339.040 547.979, 341.309 547.988 C 344.476 548.002, 344.469 547.976, 339.171 540.635 C 336.043 536.299, 335.844 535.667, 337.346 534.826 C 345.508 530.258, 345.900 518.545, 338.067 513.266 C 335.111 511.274, 333.453 511, 324.352 511 L 314 511 314 529.500 M 364.500 528.621 C 360.100 538.348, 356.350 546.687, 356.167 547.153 C 355.983 547.619, 357.108 547.998, 358.667 547.996 C 361.082 547.993, 361.773 547.330, 363.349 543.496 L 365.198 539 375.349 539.004 L 385.500 539.007 387.349 543.504 C 388.930 547.348, 389.612 548, 392.048 548 C 395.408 548, 396.007 549.906, 385.285 526.500 C 378.835 512.421, 378.232 511.483, 375.457 511.218 C 372.539 510.939, 372.394 511.170, 364.500 528.621 M 410 529.500 L 410 548 412.472 548 L 414.944 548 415.222 534.431 L 415.500 520.861 426.392 534.431 C 434.829 544.942, 437.815 548, 439.642 548 L 442 548 442 529.500 L 442 511 439.029 511 L 436.058 511 435.779 524.215 L 435.500 537.430 425 524.223 C 417.134 514.329, 413.936 511.014, 412.250 511.008 L 410 511 410 529.500 M 510 529.500 L 510 548 512.500 548 L 515 548 515 529.500 L 515 511 512.500 511 L 510 511 510 529.500 M 319 523.500 L 319 532 325.865 532 C 334.473 532, 338 529.780, 338 524.362 C 338 517.490, 334.369 515, 324.351 515 L 319 515 319 523.500 M 634.256 516.645 C 629.611 518.935, 627 523.680, 627 529.833 C 627 534.104, 627.501 535.501, 630.091 538.451 C 641.727 551.704, 662.002 536.910, 653.167 521.613 C 649.743 515.685, 640.911 513.364, 634.256 516.645 M 157.058 524.250 C 155.276 528.237, 153.586 532.063, 153.302 532.750 C 152.916 533.686, 154.712 534, 160.460 534 C 167.723 534, 168.100 533.891, 167.489 531.966 C 166.567 529.062, 161.046 517, 160.639 517 C 160.451 517, 158.840 520.263, 157.058 524.250 M 372.235 523.216 C 366.948 534.750, 366.729 534, 375.381 534 L 382.896 534 381.890 531.250 C 381.337 529.737, 379.631 525.800, 378.098 522.500 L 375.312 516.500 372.235 523.216" stroke="none" fill="#000000" fill-rule="evenodd"/>
</svg>