<svg viewBox="0 0 766 743" fill="none" xmlns="http://www.w3.org/2000/svg">
  <g clip-path="url(#clip0_1_12)">
    <path d="M119.485 557.427C116.64 557.427 113.919 557 111.323 556.146C108.726 555.257 106.681 554.119 105.187 552.732L107.161 548.571C108.584 549.815 110.398 550.847 112.603 551.665C114.808 552.483 117.102 552.892 119.485 552.892C121.655 552.892 123.416 552.643 124.767 552.145C126.119 551.647 127.114 550.971 127.755 550.118C128.395 549.229 128.715 548.233 128.715 547.13C128.715 545.85 128.288 544.818 127.435 544.036C126.617 543.253 125.532 542.631 124.18 542.169C122.864 541.671 121.406 541.244 119.805 540.888C118.205 540.532 116.587 540.123 114.951 539.661C113.35 539.163 111.874 538.541 110.522 537.794C109.206 537.047 108.139 536.051 107.321 534.806C106.503 533.526 106.094 531.89 106.094 529.898C106.094 527.977 106.592 526.217 107.588 524.616C108.62 522.98 110.185 521.682 112.283 520.722C114.417 519.726 117.12 519.228 120.392 519.228C122.562 519.228 124.714 519.512 126.848 520.081C128.982 520.65 130.831 521.468 132.396 522.535L130.636 526.804C129.035 525.737 127.346 524.972 125.567 524.509C123.789 524.012 122.064 523.763 120.392 523.763C118.294 523.763 116.569 524.029 115.217 524.563C113.866 525.096 112.87 525.808 112.23 526.697C111.625 527.586 111.323 528.582 111.323 529.684C111.323 531 111.732 532.05 112.55 532.832C113.403 533.615 114.488 534.237 115.804 534.699C117.156 535.162 118.632 535.589 120.232 535.98C121.833 536.336 123.433 536.745 125.034 537.207C126.67 537.669 128.146 538.274 129.462 539.021C130.813 539.768 131.898 540.764 132.716 542.008C133.534 543.253 133.943 544.854 133.943 546.81C133.943 548.695 133.428 550.456 132.396 552.092C131.365 553.692 129.764 554.99 127.595 555.986C125.461 556.947 122.758 557.427 119.485 557.427ZM145.152 557L162.064 519.655H167.346L184.311 557H178.71L163.611 522.642H165.745L150.647 557H145.152ZM152.354 547.664L153.795 543.396H174.815L176.362 547.664H152.354ZM198.952 557V519.655H203.327L228.028 550.331H225.734V519.655H231.069V557H226.694L201.993 526.323H204.287V557H198.952ZM279.516 537.314H298.775V541.902H279.516V537.314ZM280.049 557H274.714V519.655H301.069V524.296H280.049V557ZM317.649 557V519.655H332.214C335.486 519.655 338.278 520.17 340.59 521.202C342.901 522.233 344.68 523.727 345.925 525.683C347.17 527.639 347.792 529.969 347.792 532.672C347.792 535.375 347.17 537.705 345.925 539.661C344.68 541.582 342.901 543.058 340.59 544.089C338.278 545.121 335.486 545.636 332.214 545.636H320.583L322.984 543.182V557H317.649ZM342.617 557L333.121 543.449H338.829L348.432 557H342.617ZM322.984 543.716L320.583 541.102H332.054C335.468 541.102 338.047 540.372 339.789 538.914C341.568 537.42 342.457 535.34 342.457 532.672C342.457 530.005 341.568 527.942 339.789 526.483C338.047 525.025 335.468 524.296 332.054 524.296H320.583L322.984 521.629V543.716ZM359.826 557L376.738 519.655H382.02L398.985 557H393.383L378.285 522.642H380.419L365.321 557H359.826ZM367.028 547.664L368.469 543.396H389.489L391.036 547.664H367.028ZM413.626 557V519.655H418.001L442.702 550.331H440.408V519.655H445.743V557H441.368L416.667 526.323H418.961V557H413.626ZM482.689 557.427C479.844 557.427 477.212 556.964 474.794 556.04C472.411 555.079 470.33 553.746 468.552 552.038C466.809 550.296 465.439 548.268 464.444 545.956C463.448 543.645 462.95 541.102 462.95 538.327C462.95 535.553 463.448 533.01 464.444 530.698C465.439 528.386 466.827 526.377 468.605 524.67C470.383 522.927 472.464 521.593 474.847 520.668C477.265 519.708 479.897 519.228 482.743 519.228C485.624 519.228 488.273 519.726 490.692 520.722C493.146 521.682 495.227 523.122 496.934 525.043L493.466 528.404C492.044 526.91 490.443 525.808 488.665 525.096C486.886 524.349 484.984 523.976 482.956 523.976C480.858 523.976 478.902 524.332 477.088 525.043C475.309 525.754 473.762 526.75 472.446 528.031C471.13 529.311 470.099 530.84 469.352 532.619C468.64 534.362 468.285 536.264 468.285 538.327C468.285 540.39 468.64 542.311 469.352 544.089C470.099 545.832 471.13 547.344 472.446 548.624C473.762 549.904 475.309 550.9 477.088 551.612C478.902 552.323 480.858 552.679 482.956 552.679C484.984 552.679 486.886 552.323 488.665 551.612C490.443 550.865 492.044 549.727 493.466 548.197L496.934 551.558C495.227 553.479 493.146 554.937 490.692 555.933C488.273 556.929 485.606 557.427 482.689 557.427ZM513.615 557V519.655H518.95V557H513.615ZM550.083 557.427C547.238 557.427 544.517 557 541.921 556.146C539.324 555.257 537.279 554.119 535.785 552.732L537.759 548.571C539.182 549.815 540.996 550.847 543.201 551.665C545.406 552.483 547.7 552.892 550.083 552.892C552.253 552.892 554.014 552.643 555.365 552.145C556.717 551.647 557.713 550.971 558.353 550.118C558.993 549.229 559.313 548.233 559.313 547.13C559.313 545.85 558.886 544.818 558.033 544.036C557.215 543.253 556.13 542.631 554.778 542.169C553.462 541.671 552.004 541.244 550.404 540.888C548.803 540.532 547.185 540.123 545.549 539.661C543.948 539.163 542.472 538.541 541.121 537.794C539.805 537.047 538.738 536.051 537.919 534.806C537.101 533.526 536.692 531.89 536.692 529.898C536.692 527.977 537.19 526.217 538.186 524.616C539.218 522.98 540.783 521.682 542.881 520.722C545.015 519.726 547.718 519.228 550.99 519.228C553.16 519.228 555.312 519.512 557.446 520.081C559.58 520.65 561.429 521.468 562.994 522.535L561.234 526.804C559.633 525.737 557.944 524.972 556.165 524.509C554.387 524.012 552.662 523.763 550.99 523.763C548.892 523.763 547.167 524.029 545.815 524.563C544.464 525.096 543.468 525.808 542.828 526.697C542.223 527.586 541.921 528.582 541.921 529.684C541.921 531 542.33 532.05 543.148 532.832C544.001 533.615 545.086 534.237 546.402 534.699C547.754 535.162 549.23 535.589 550.83 535.98C552.431 536.336 554.031 536.745 555.632 537.207C557.268 537.669 558.744 538.274 560.06 539.021C561.412 539.768 562.496 540.764 563.314 542.008C564.132 543.253 564.541 544.854 564.541 546.81C564.541 548.695 564.026 550.456 562.994 552.092C561.963 553.692 560.362 554.99 558.193 555.986C556.059 556.947 553.356 557.427 550.083 557.427ZM598.104 557.427C595.259 557.427 592.627 556.964 590.208 556.04C587.825 555.079 585.744 553.746 583.966 552.038C582.223 550.296 580.854 548.268 579.858 545.956C578.862 543.645 578.364 541.102 578.364 538.327C578.364 535.553 578.862 533.01 579.858 530.698C580.854 528.386 582.241 526.377 584.019 524.67C585.798 522.927 587.878 521.593 590.261 520.668C592.68 519.708 595.312 519.228 598.157 519.228C601.038 519.228 603.688 519.726 606.107 520.722C608.561 521.682 610.641 523.122 612.349 525.043L608.881 528.404C607.458 526.91 605.858 525.808 604.079 525.096C602.301 524.349 600.398 523.976 598.371 523.976C596.272 523.976 594.316 524.332 592.502 525.043C590.724 525.754 589.177 526.75 587.861 528.031C586.545 529.311 585.513 530.84 584.766 532.619C584.055 534.362 583.699 536.264 583.699 538.327C583.699 540.39 584.055 542.311 584.766 544.089C585.513 545.832 586.545 547.344 587.861 548.624C589.177 549.904 590.724 550.9 592.502 551.612C594.316 552.323 596.272 552.679 598.371 552.679C600.398 552.679 602.301 552.323 604.079 551.612C605.858 550.865 607.458 549.727 608.881 548.197L612.349 551.558C610.641 553.479 608.561 554.937 606.107 555.933C603.688 556.929 601.021 557.427 598.104 557.427ZM645.106 557.427C642.261 557.427 639.611 556.947 637.157 555.986C634.739 555.026 632.64 553.692 630.862 551.985C629.083 550.242 627.696 548.215 626.7 545.903C625.704 543.591 625.207 541.066 625.207 538.327C625.207 535.589 625.704 533.063 626.7 530.751C627.696 528.44 629.083 526.43 630.862 524.723C632.64 522.98 634.739 521.629 637.157 520.668C639.576 519.708 642.225 519.228 645.106 519.228C647.952 519.228 650.566 519.708 652.949 520.668C655.367 521.593 657.466 522.927 659.244 524.67C661.058 526.377 662.445 528.386 663.406 530.698C664.401 533.01 664.899 535.553 664.899 538.327C664.899 541.102 664.401 543.645 663.406 545.956C662.445 548.268 661.058 550.296 659.244 552.038C657.466 553.746 655.367 555.079 652.949 556.04C650.566 556.964 647.952 557.427 645.106 557.427ZM645.106 552.679C647.169 552.679 649.072 552.323 650.815 551.612C652.593 550.9 654.123 549.904 655.403 548.624C656.719 547.308 657.733 545.779 658.444 544.036C659.191 542.293 659.564 540.39 659.564 538.327C659.564 536.264 659.191 534.362 658.444 532.619C657.733 530.876 656.719 529.364 655.403 528.084C654.123 526.768 652.593 525.754 650.815 525.043C649.072 524.332 647.169 523.976 645.106 523.976C643.008 523.976 641.069 524.332 639.291 525.043C637.548 525.754 636.019 526.768 634.703 528.084C633.387 529.364 632.356 530.876 631.609 532.619C630.897 534.362 630.542 536.264 630.542 538.327C630.542 540.39 630.897 542.293 631.609 544.036C632.356 545.779 633.387 547.308 634.703 548.624C636.019 549.904 637.548 550.9 639.291 551.612C641.069 552.323 643.008 552.679 645.106 552.679Z" fill="currentColor"/>
  </g>
  <defs>
    <clipPath id="clip0_1_12">
      <rect width="766" height="743" fill="white"/>
    </clipPath>
  </defs>
</svg> 